<svg xmlns="http://www.w3.org/2000/svg" width="332" height="324" viewBox="0 0 332 324">
<g>
<path d="M 175.79 302.99 C172.33,305.19 168.82,306.97 168.00,306.96 C166.52,306.93 155.33,300.53 151.55,297.54 C150.47,296.69 148.73,296.00 147.68,296.00 C146.63,296.00 142.72,293.98 139.00,291.50 C135.28,289.02 131.50,287.00 130.62,287.00 C129.73,287.00 129.00,286.53 129.00,285.95 C129.00,285.38 127.76,284.36 126.25,283.69 C121.14,281.43 115.51,277.30 111.53,272.89 C109.35,270.48 106.68,268.05 105.58,267.49 C104.48,266.94 103.32,265.36 103.00,263.99 C102.59,262.21 101.65,261.41 99.71,261.18 C98.22,261.01 97.00,260.37 97.00,259.77 C97.00,259.16 94.81,256.61 92.13,254.08 C89.45,251.56 86.57,248.15 85.72,246.50 C84.87,244.85 82.79,242.18 81.09,240.56 C79.39,238.95 78.00,237.11 78.00,236.49 C78.00,235.86 76.88,234.29 75.50,233.00 C74.12,231.71 73.00,230.12 73.00,229.48 C73.00,228.84 72.13,227.52 71.06,226.55 C69.99,225.58 68.83,223.51 68.49,221.94 C68.14,220.38 67.07,218.06 66.10,216.80 C65.13,215.53 63.75,212.25 63.02,209.50 C62.30,206.75 60.70,202.02 59.48,199.00 C58.25,195.98 56.94,191.25 56.56,188.50 C56.18,185.75 55.04,181.21 54.01,178.41 C51.71,172.12 51.66,170.57 51.91,116.87 C52.06,84.64 52.43,72.80 53.32,71.58 C53.98,70.67 57.22,69.26 60.51,68.44 C63.81,67.62 67.18,66.77 68.00,66.55 C68.82,66.33 70.01,66.12 70.64,66.08 C71.26,66.03 73.98,64.48 76.67,62.63 C82.66,58.52 90.96,55.56 101.35,53.86 C105.83,53.12 110.07,51.80 111.25,50.78 C112.38,49.80 114.16,49.00 115.20,49.00 C116.25,49.00 118.99,48.02 121.30,46.82 C129.73,42.45 130.85,42.00 133.17,42.00 C134.47,42.00 138.00,41.06 141.01,39.92 C144.03,38.77 149.88,36.61 154.00,35.11 C158.12,33.61 162.56,31.81 163.86,31.10 C165.17,30.39 167.42,30.06 168.86,30.37 C170.31,30.67 173.07,31.22 175.00,31.57 C176.93,31.93 179.53,33.30 180.79,34.61 C182.45,36.34 184.17,37.00 187.05,37.00 C189.24,37.00 191.81,37.41 192.76,37.92 C197.27,40.29 202.01,42.00 204.12,42.00 C207.17,42.00 214.89,44.91 217.88,47.19 C219.20,48.18 221.08,49.00 222.06,49.00 C223.05,49.00 226.88,50.58 230.57,52.50 C234.26,54.42 238.51,56.00 240.01,56.00 C242.54,56.00 250.34,58.99 262.50,64.63 C265.25,65.91 270.65,67.67 274.49,68.55 C278.34,69.43 282.00,70.58 282.63,71.11 C283.46,71.80 283.82,84.22 283.94,115.70 C284.02,139.70 284.29,159.66 284.53,160.04 C285.43,161.51 282.75,178.70 280.92,183.19 C279.86,185.76 279.00,189.49 279.00,191.48 C279.00,193.46 278.14,196.77 277.08,198.84 C276.03,200.90 274.85,204.28 274.46,206.34 C274.08,208.40 272.02,212.65 269.88,215.79 C267.75,218.93 266.00,222.15 266.00,222.93 C266.00,225.23 261.87,233.11 260.37,233.69 C259.62,233.98 258.12,236.19 257.06,238.61 C255.99,241.02 254.61,243.00 254.00,243.00 C253.39,243.00 252.43,244.32 251.87,245.94 C251.13,248.06 250.10,248.97 248.17,249.19 C246.32,249.41 245.41,250.16 245.19,251.66 C244.87,253.93 231.77,268.00 229.98,268.00 C229.41,268.00 228.51,269.15 227.98,270.55 C227.43,271.99 225.56,273.70 223.66,274.50 C221.81,275.27 218.74,277.39 216.84,279.20 C212.69,283.17 199.07,291.87 193.51,294.12 C191.30,295.00 188.15,296.46 186.50,297.36 C184.85,298.26 183.18,298.99 182.79,298.99 C182.40,299.00 179.25,300.80 175.79,302.99 ZM 153.40 245.37 C158.04,246.98 174.74,246.72 179.06,244.96 C180.47,244.38 182.39,242.61 183.33,241.01 C184.27,239.42 187.67,235.49 190.87,232.29 C195.23,227.93 196.87,225.48 197.43,222.53 C197.83,220.37 199.03,216.90 200.08,214.84 C201.14,212.77 202.00,209.32 202.00,207.17 C202.00,205.01 202.68,201.34 203.50,199.00 C204.32,196.66 205.00,192.86 205.00,190.54 C205.00,187.11 205.45,186.10 207.43,185.04 C208.77,184.32 210.91,184.01 212.18,184.35 C213.76,184.77 216.86,183.80 221.87,181.34 C228.35,178.15 229.48,177.17 231.20,173.29 C233.00,169.21 233.03,168.69 231.56,166.46 C228.37,161.58 221.07,159.76 219.64,163.49 C218.86,165.53 211.60,169.00 208.10,169.00 C206.47,169.00 203.86,168.52 202.32,167.92 C198.65,166.52 179.50,163.00 175.54,163.00 C173.85,163.00 170.79,163.90 168.74,165.00 C166.69,166.10 164.11,167.00 163.02,167.00 C159.48,167.00 153.31,170.05 152.29,172.30 C147.48,182.93 147.29,183.56 148.18,185.97 C149.38,189.20 150.72,189.97 155.21,189.98 C158.26,190.00 159.57,189.29 162.57,186.06 C168.57,179.56 178.05,177.72 187.34,181.24 C189.69,182.13 190.10,182.77 189.68,184.91 C189.40,186.33 188.60,191.97 187.89,197.43 C186.92,204.97 186.89,207.46 187.77,207.76 C188.49,208.00 187.96,209.18 186.40,210.82 C185.00,212.30 182.34,216.48 180.48,220.11 C177.73,225.52 176.57,226.84 174.18,227.31 C172.11,227.73 171.05,228.66 170.60,230.45 C170.07,232.58 169.38,233.00 166.45,233.00 C164.51,233.00 161.86,232.30 160.55,231.44 C159.23,230.58 157.56,229.96 156.83,230.06 C153.78,230.47 152.91,229.75 150.39,224.75 C148.93,221.86 146.22,217.81 144.37,215.75 C142.52,213.68 141.00,211.38 141.00,210.62 C141.00,209.86 140.38,208.73 139.63,208.10 C138.87,207.48 138.00,204.83 137.69,202.23 C137.38,199.63 136.19,194.12 135.05,190.00 C132.43,180.58 130.69,161.54 131.66,153.00 C132.06,149.43 132.42,145.56 132.45,144.41 C132.48,143.26 133.16,141.52 133.96,140.55 C134.77,139.57 135.51,136.85 135.60,134.50 C135.83,128.80 138.10,122.56 144.33,110.50 C148.87,101.73 149.85,100.46 152.35,100.17 C153.92,99.99 156.62,98.98 158.35,97.93 C162.33,95.50 164.12,95.51 169.00,98.00 C171.16,99.10 173.82,100.00 174.93,100.00 C176.63,100.00 180.56,102.93 184.50,107.13 C185.05,107.72 186.74,109.46 188.25,111.00 C189.76,112.54 191.00,114.65 191.00,115.68 C191.00,116.71 191.71,118.57 192.58,119.82 C193.45,121.06 194.17,124.03 194.17,126.41 C194.17,128.91 194.97,132.07 196.07,133.87 C197.74,136.62 198.51,137.00 202.42,137.00 C204.87,137.00 208.02,136.56 209.43,136.02 C211.58,135.21 212.00,134.42 212.00,131.15 C212.00,128.90 211.36,126.72 210.50,126.00 C209.67,125.31 209.00,123.13 209.00,121.10 C209.00,119.09 208.39,116.56 207.65,115.47 C206.91,114.39 205.98,112.19 205.59,110.59 C204.31,105.34 195.36,95.28 186.52,89.16 C180.70,85.14 170.33,82.49 160.50,82.53 C152.13,82.56 147.03,84.98 140.32,92.12 C135.22,97.53 130.00,104.56 130.00,105.99 C130.00,106.55 129.55,107.00 129.00,107.00 C128.45,107.00 127.99,107.56 127.98,108.25 C127.97,108.94 126.67,111.41 125.09,113.75 C121.91,118.44 120.66,124.12 118.44,143.96 C116.69,159.62 116.41,181.58 117.93,183.42 C118.54,184.15 119.47,188.75 120.00,193.63 C121.45,207.01 122.42,211.15 125.08,215.17 C126.41,217.19 129.04,221.39 130.93,224.50 C135.28,231.68 147.98,243.47 153.40,245.37 Z" fill="rgb(104,182,229)"/>
<path d="M 184.29 302.07 C176.46,305.88 169.48,308.97 168.78,308.93 C165.93,308.76 138.98,294.53 128.70,287.76 C100.24,269.00 77.31,243.91 64.49,217.49 C59.95,208.12 53.13,187.51 51.28,177.55 C49.29,166.83 48.16,72.72 49.99,70.51 C50.64,69.73 59.56,66.33 69.83,62.95 C80.10,59.57 90.30,56.01 92.50,55.05 C97.93,52.66 136.37,38.84 165.59,28.78 C168.19,27.88 170.09,28.20 177.59,30.78 C206.99,40.91 279.19,66.61 284.32,68.76 L 288.15 70.37 L 287.72 120.43 C287.32,166.85 287.14,171.23 285.15,180.50 C273.79,233.65 239.22,275.31 184.29,302.07 ZM 175.79 302.99 C179.25,300.80 182.40,299.00 182.79,298.99 C183.18,298.99 184.85,298.26 186.50,297.36 C188.15,296.46 191.30,295.00 193.51,294.12 C199.07,291.87 212.69,283.17 216.84,279.20 C218.74,277.39 221.81,275.27 223.66,274.50 C225.56,273.70 227.43,271.99 227.98,270.55 C228.51,269.15 229.41,268.00 229.98,268.00 C231.77,268.00 244.87,253.93 245.19,251.66 C245.41,250.16 246.32,249.41 248.17,249.19 C250.10,248.97 251.13,248.06 251.87,245.94 C252.43,244.32 253.39,243.00 254.00,243.00 C254.61,243.00 255.99,241.02 257.06,238.61 C258.12,236.19 259.62,233.98 260.37,233.69 C261.87,233.11 266.00,225.23 266.00,222.93 C266.00,222.15 267.75,218.93 269.88,215.79 C272.02,212.65 274.08,208.40 274.46,206.34 C274.85,204.28 276.03,200.90 277.08,198.84 C278.14,196.77 279.00,193.46 279.00,191.48 C279.00,189.49 279.86,185.76 280.92,183.19 C282.75,178.70 285.43,161.51 284.53,160.04 C284.29,159.66 284.02,139.70 283.94,115.70 C283.82,84.22 283.46,71.80 282.63,71.11 C282.00,70.58 278.34,69.43 274.49,68.55 C270.65,67.67 265.25,65.91 262.50,64.63 C250.34,58.99 242.54,56.00 240.01,56.00 C238.51,56.00 234.26,54.42 230.57,52.50 C226.88,50.58 223.05,49.00 222.06,49.00 C221.08,49.00 219.20,48.18 217.88,47.19 C214.89,44.91 207.17,42.00 204.12,42.00 C202.01,42.00 197.27,40.29 192.76,37.92 C191.81,37.41 189.24,37.00 187.05,37.00 C184.17,37.00 182.45,36.34 180.79,34.61 C179.53,33.30 176.93,31.93 175.00,31.57 C173.07,31.22 170.31,30.67 168.86,30.37 C167.42,30.06 165.17,30.39 163.86,31.10 C162.56,31.81 158.12,33.61 154.00,35.11 C149.88,36.61 144.03,38.77 141.01,39.92 C138.00,41.06 134.47,42.00 133.17,42.00 C130.85,42.00 129.73,42.45 121.30,46.82 C118.99,48.02 116.25,49.00 115.20,49.00 C114.16,49.00 112.38,49.80 111.25,50.78 C110.07,51.80 105.83,53.12 101.35,53.86 C90.96,55.56 82.66,58.52 76.67,62.63 C73.98,64.48 71.26,66.03 70.64,66.08 C70.01,66.12 68.82,66.33 68.00,66.55 C67.18,66.77 63.81,67.62 60.51,68.44 C57.22,69.26 53.98,70.67 53.32,71.58 C52.43,72.80 52.06,84.64 51.91,116.87 C51.66,170.57 51.71,172.12 54.01,178.41 C55.04,181.21 56.18,185.75 56.56,188.50 C56.94,191.25 58.25,195.98 59.48,199.00 C60.70,202.02 62.30,206.75 63.02,209.50 C63.75,212.25 65.13,215.53 66.10,216.80 C67.07,218.06 68.14,220.38 68.49,221.94 C68.83,223.51 69.99,225.58 71.06,226.55 C72.13,227.52 73.00,228.84 73.00,229.48 C73.00,230.12 74.12,231.71 75.50,233.00 C76.88,234.29 78.00,235.86 78.00,236.49 C78.00,237.11 79.39,238.95 81.09,240.56 C82.79,242.18 84.87,244.85 85.72,246.50 C86.57,248.15 89.45,251.56 92.13,254.08 C94.81,256.61 97.00,259.16 97.00,259.77 C97.00,260.37 98.22,261.01 99.71,261.18 C101.65,261.41 102.59,262.21 103.00,263.99 C103.32,265.36 104.48,266.94 105.58,267.49 C106.68,268.05 109.35,270.48 111.53,272.89 C115.51,277.30 121.14,281.43 126.25,283.69 C127.76,284.36 129.00,285.38 129.00,285.95 C129.00,286.53 129.73,287.00 130.62,287.00 C131.50,287.00 135.28,289.02 139.00,291.50 C142.72,293.98 146.63,296.00 147.68,296.00 C148.73,296.00 150.47,296.69 151.55,297.54 C155.33,300.53 166.52,306.93 168.00,306.96 C168.82,306.97 172.33,305.19 175.79,302.99 ZM 153.40 245.37 C147.98,243.47 135.28,231.68 130.93,224.50 C129.04,221.39 126.41,217.19 125.08,215.17 C122.42,211.15 121.45,207.01 120.00,193.63 C119.47,188.75 118.54,184.15 117.93,183.42 C116.41,181.58 116.69,159.62 118.44,143.96 C120.66,124.12 121.91,118.44 125.09,113.75 C126.67,111.41 127.97,108.94 127.98,108.25 C127.99,107.56 128.45,107.00 129.00,107.00 C129.55,107.00 130.00,106.55 130.00,105.99 C130.00,104.56 135.22,97.53 140.32,92.12 C147.03,84.98 152.13,82.56 160.50,82.53 C170.33,82.49 180.70,85.14 186.52,89.16 C195.36,95.28 204.31,105.34 205.59,110.59 C205.98,112.19 206.91,114.39 207.65,115.47 C208.39,116.56 209.00,119.09 209.00,121.10 C209.00,123.13 209.67,125.31 210.50,126.00 C211.36,126.72 212.00,128.90 212.00,131.15 C212.00,134.42 211.58,135.21 209.43,136.02 C208.02,136.56 204.87,137.00 202.42,137.00 C198.51,137.00 197.74,136.62 196.07,133.87 C194.97,132.07 194.17,128.91 194.17,126.41 C194.17,124.03 193.45,121.06 192.58,119.82 C191.71,118.57 191.00,116.71 191.00,115.68 C191.00,114.65 189.76,112.54 188.25,111.00 C186.74,109.46 185.05,107.72 184.50,107.13 C180.56,102.93 176.63,100.00 174.93,100.00 C173.82,100.00 171.16,99.10 169.00,98.00 C164.12,95.51 162.33,95.50 158.35,97.93 C156.62,98.98 153.92,99.99 152.35,100.17 C149.85,100.46 148.87,101.73 144.33,110.50 C138.10,122.56 135.83,128.80 135.60,134.50 C135.51,136.85 134.77,139.57 133.96,140.55 C133.16,141.52 132.48,143.26 132.45,144.41 C132.42,145.56 132.06,149.43 131.66,153.00 C130.69,161.54 132.43,180.58 135.05,190.00 C136.19,194.12 137.38,199.63 137.69,202.23 C138.00,204.83 138.87,207.48 139.63,208.10 C140.38,208.73 141.00,209.86 141.00,210.62 C141.00,211.38 142.52,213.68 144.37,215.75 C146.22,217.81 148.93,221.86 150.39,224.75 C152.91,229.75 153.78,230.47 156.83,230.06 C157.56,229.96 159.23,230.58 160.55,231.44 C161.86,232.30 164.51,233.00 166.45,233.00 C169.38,233.00 170.07,232.58 170.60,230.45 C171.05,228.66 172.11,227.73 174.18,227.31 C176.57,226.84 177.73,225.52 180.48,220.11 C182.34,216.48 185.00,212.30 186.40,210.82 C187.96,209.18 188.49,208.00 187.77,207.76 C186.89,207.46 186.92,204.97 187.89,197.43 C188.60,191.97 189.40,186.33 189.68,184.91 C190.10,182.77 189.69,182.13 187.34,181.24 C178.05,177.72 168.57,179.56 162.57,186.06 C159.57,189.29 158.26,190.00 155.21,189.98 C150.72,189.97 149.38,189.20 148.18,185.97 C147.29,183.56 147.48,182.93 152.29,172.30 C153.31,170.05 159.48,167.00 163.02,167.00 C164.11,167.00 166.69,166.10 168.74,165.00 C170.79,163.90 173.85,163.00 175.54,163.00 C179.50,163.00 198.65,166.52 202.32,167.92 C203.86,168.52 206.47,169.00 208.10,169.00 C211.60,169.00 218.86,165.53 219.64,163.49 C221.07,159.76 228.37,161.58 231.56,166.46 C233.03,168.69 233.00,169.21 231.20,173.29 C229.48,177.17 228.35,178.15 221.87,181.34 C216.86,183.80 213.76,184.77 212.18,184.35 C210.91,184.01 208.77,184.32 207.43,185.04 C205.45,186.10 205.00,187.11 205.00,190.54 C205.00,192.86 204.32,196.66 203.50,199.00 C202.68,201.34 202.00,205.01 202.00,207.17 C202.00,209.32 201.14,212.77 200.08,214.84 C199.03,216.90 197.83,220.37 197.43,222.53 C196.87,225.48 195.23,227.93 190.87,232.29 C187.67,235.49 184.27,239.42 183.33,241.01 C182.39,242.61 180.47,244.38 179.06,244.96 C174.74,246.72 158.04,246.98 153.40,245.37 ZM 152.31 242.00 C167.48,249.58 184.13,242.69 193.44,224.99 C197.61,217.05 201.52,202.36 202.55,190.75 C202.93,186.49 203.52,182.97 203.87,182.93 C204.22,182.89 207.01,182.71 210.08,182.54 C213.16,182.36 217.48,181.29 219.73,180.14 C224.23,177.84 230.00,171.50 230.00,168.84 C230.00,167.21 225.61,163.00 223.91,163.00 C223.46,163.00 221.10,165.02 218.66,167.50 C214.75,171.47 213.70,172.00 209.86,172.00 C207.46,172.00 203.14,171.10 200.26,170.01 C189.59,165.95 169.42,165.71 161.84,169.55 C155.12,172.94 151.00,178.36 151.00,183.78 C151.00,186.24 151.56,186.84 154.75,187.84 C157.98,188.85 158.64,188.78 159.50,187.35 C162.21,182.85 166.56,178.91 169.93,177.90 C174.03,176.68 190.33,177.00 191.67,178.33 C192.12,178.79 192.39,182.75 192.25,187.14 C191.59,208.07 182.55,228.12 171.51,233.14 C166.09,235.60 163.31,235.46 157.21,232.42 C147.60,227.63 139.78,216.02 134.66,198.98 C130.76,186.02 129.67,175.81 130.29,158.15 C131.09,135.12 135.85,118.26 145.10,105.66 C150.90,97.76 155.95,95.00 164.62,95.00 C179.75,95.00 193.94,109.13 197.33,127.57 L 198.61 134.50 L 203.31 134.81 C209.33,135.20 209.80,134.07 207.70,124.37 C203.25,103.87 189.33,89.13 170.44,84.90 C163.57,83.36 153.52,84.95 147.37,88.54 C139.23,93.28 131.86,103.73 126.06,118.76 C120.70,132.61 118.04,157.70 119.87,177.17 C120.54,184.41 121.59,192.40 122.19,194.92 C127.77,218.33 138.49,235.09 152.31,242.00 Z" fill="rgb(122,182,219)"/>
<path d="M 0.00 162.00 L 0.00 0.00 L 166.00 0.00 L 332.00 0.00 L 332.00 162.00 L 332.00 324.00 L 166.00 324.00 L 0.00 324.00 L 0.00 162.00 ZM 184.29 302.07 C239.22,275.31 273.79,233.65 285.15,180.50 C287.14,171.23 287.32,166.85 287.72,120.43 L 288.15 70.37 L 284.32 68.76 C279.19,66.61 206.99,40.91 177.59,30.78 C170.09,28.20 168.19,27.88 165.59,28.78 C136.37,38.84 97.93,52.66 92.50,55.05 C90.30,56.01 80.10,59.57 69.83,62.95 C59.56,66.33 50.64,69.73 49.99,70.51 C48.16,72.72 49.29,166.83 51.28,177.55 C53.13,187.51 59.95,208.12 64.49,217.49 C77.31,243.91 100.24,269.00 128.70,287.76 C138.98,294.53 165.93,308.76 168.78,308.93 C169.48,308.97 176.46,305.88 184.29,302.07 ZM 152.31 242.00 C138.49,235.09 127.77,218.33 122.19,194.92 C121.59,192.40 120.54,184.41 119.87,177.17 C118.04,157.70 120.70,132.61 126.06,118.76 C131.86,103.73 139.23,93.28 147.37,88.54 C153.52,84.95 163.57,83.36 170.44,84.90 C189.33,89.13 203.25,103.87 207.70,124.37 C209.80,134.07 209.33,135.20 203.31,134.81 L 198.61 134.50 L 197.33 127.57 C193.94,109.13 179.75,95.00 164.62,95.00 C155.95,95.00 150.90,97.76 145.10,105.66 C135.85,118.26 131.09,135.12 130.29,158.15 C129.67,175.81 130.76,186.02 134.66,198.98 C139.78,216.02 147.60,227.63 157.21,232.42 C163.31,235.46 166.09,235.60 171.51,233.14 C182.55,228.12 191.59,208.07 192.25,187.14 C192.39,182.75 192.12,178.79 191.67,178.33 C190.33,177.00 174.03,176.68 169.93,177.90 C166.56,178.91 162.21,182.85 159.50,187.35 C158.64,188.78 157.98,188.85 154.75,187.84 C151.56,186.84 151.00,186.24 151.00,183.78 C151.00,178.36 155.12,172.94 161.84,169.55 C169.42,165.71 189.59,165.95 200.26,170.01 C203.14,171.10 207.46,172.00 209.86,172.00 C213.70,172.00 214.75,171.47 218.66,167.50 C221.10,165.02 223.46,163.00 223.91,163.00 C225.61,163.00 230.00,167.21 230.00,168.84 C230.00,171.50 224.23,177.84 219.73,180.14 C217.48,181.29 213.16,182.36 210.08,182.54 C207.01,182.71 204.22,182.89 203.87,182.93 C203.52,182.97 202.93,186.49 202.55,190.75 C201.52,202.36 197.61,217.05 193.44,224.99 C184.13,242.69 167.48,249.58 152.31,242.00 Z" fill="rgb(254,254,254)"/>
</g>
</svg>