<svg xmlns="http://www.w3.org/2000/svg" width="332" height="324" viewBox="0 0 332 324">
<g>
<path d="M 178.09 301.84 C173.46,304.13 168.96,305.98 168.09,305.96 C165.62,305.90 160.80,303.55 157.50,300.80 C153.28,297.28 150.57,296.00 147.32,296.00 C145.52,296.00 142.51,294.44 139.00,291.69 C135.98,289.33 132.71,287.09 131.75,286.73 C130.79,286.36 130.00,285.63 130.00,285.09 C130.00,284.56 126.96,282.63 123.25,280.81 C117.67,278.07 113.82,274.79 101.00,261.85 C85.09,245.78 83.75,244.18 74.66,230.50 C68.94,221.90 62.00,208.19 62.00,205.51 C62.00,204.61 60.93,201.54 59.63,198.69 C58.32,195.83 56.92,191.08 56.52,188.13 C56.11,185.17 54.86,180.67 53.73,178.13 C51.75,173.67 51.68,171.73 51.67,124.00 C51.66,88.38 51.98,73.89 52.82,72.34 C53.61,70.87 55.33,69.97 58.24,69.52 C63.72,68.68 74.51,65.26 79.00,62.95 C87.55,58.56 94.04,56.10 101.24,54.51 C105.50,53.57 110.07,51.95 111.40,50.90 C112.73,49.86 114.82,49.00 116.04,49.00 C117.26,49.00 119.69,48.12 121.44,47.04 C123.19,45.96 127.06,44.40 130.06,43.58 C137.61,41.51 143.86,39.37 155.50,34.86 C161.00,32.72 166.90,30.98 168.61,30.99 C170.32,31.00 174.14,32.28 177.11,33.85 C180.07,35.42 184.37,36.99 186.66,37.35 C188.95,37.70 192.93,38.90 195.49,40.00 C198.06,41.10 201.38,42.00 202.86,42.00 C204.34,42.00 206.48,42.65 207.62,43.44 C208.75,44.24 210.76,45.06 212.09,45.26 C213.42,45.47 216.98,46.88 220.00,48.40 C225.24,51.03 236.16,54.94 242.42,56.43 C244.03,56.81 246.45,58.00 247.81,59.06 C249.16,60.13 251.08,61.00 252.08,61.00 C253.08,61.00 257.40,62.82 261.70,65.05 C267.64,68.13 271.16,69.26 276.50,69.80 L 283.50 70.50 L 283.57 75.50 C283.61,78.25 283.77,100.53 283.92,125.00 C284.21,170.37 283.84,176.42 280.31,183.32 C279.52,184.88 278.85,187.99 278.82,190.23 C278.79,192.48 277.69,196.61 276.39,199.41 C275.09,202.21 274.02,205.32 274.01,206.33 C274.00,207.34 272.51,210.71 270.68,213.83 C268.86,216.95 266.85,220.96 266.23,222.75 C265.61,224.54 263.58,228.37 261.72,231.25 C259.87,234.14 257.52,237.85 256.50,239.50 C255.49,241.15 253.84,243.09 252.83,243.81 C251.82,244.53 251.00,245.58 251.00,246.15 C251.00,247.63 226.41,271.99 221.77,275.11 C219.63,276.55 217.18,278.73 216.32,279.95 C215.47,281.17 212.86,282.99 210.53,283.99 C208.20,284.99 204.77,287.14 202.90,288.78 C201.03,290.42 197.25,292.52 194.50,293.45 C191.75,294.38 188.82,295.71 188.00,296.41 C187.18,297.11 182.71,299.55 178.09,301.84 ZM 156.88 247.14 C168.50,248.91 183.08,244.99 186.79,239.10 C187.69,237.67 190.36,234.48 192.71,232.00 C195.39,229.19 197.24,226.19 197.63,224.00 C197.98,222.07 198.90,219.25 199.67,217.73 C201.58,213.96 204.97,197.54 204.98,191.95 C205.00,186.27 206.25,185.00 211.80,185.00 C214.21,185.00 217.39,184.40 218.85,183.67 C220.31,182.93 222.85,181.68 224.50,180.88 C226.22,180.05 228.87,177.15 230.71,174.08 C234.37,167.98 234.05,166.22 228.69,162.95 C223.99,160.09 221.35,160.52 216.26,165.00 C213.72,167.24 210.69,169.00 209.37,169.00 C206.46,169.00 199.59,167.45 190.67,164.77 C181.50,162.02 171.41,162.73 161.00,166.87 C152.86,170.10 151.11,172.07 148.39,181.00 C148.32,181.23 148.25,181.46 148.18,181.67 C147.35,184.39 146.97,185.66 147.38,186.56 C147.78,187.42 148.92,187.94 151.12,189.06 C156.49,191.80 158.99,191.09 164.61,185.22 L 169.14 180.50 L 178.16 180.52 C190.16,180.54 190.25,180.67 187.85,194.22 C186.85,199.87 186.03,205.89 186.02,207.60 C186.01,209.39 185.17,211.44 184.03,212.48 C182.94,213.46 181.76,215.22 181.40,216.38 C179.92,221.23 174.76,227.67 170.49,230.00 L 166.05 232.43 L 160.27 230.48 C154.00,228.36 153.02,227.51 146.48,218.44 C143.65,214.51 141.35,209.75 139.96,204.94 C131.67,176.34 130.39,167.09 132.56,151.76 C133.35,146.12 134.42,139.93 134.91,138.00 C135.41,136.07 136.37,132.05 137.05,129.07 C138.67,121.92 142.62,113.30 146.16,109.22 C147.72,107.41 149.00,105.31 149.00,104.56 C149.00,102.93 159.13,97.00 161.93,97.00 C163.00,97.00 167.13,98.20 171.09,99.67 C183.13,104.13 192.76,116.14 194.49,128.86 C195.52,136.46 197.68,138.35 204.33,137.51 C214.07,136.26 215.32,130.99 209.03,117.57 C206.85,112.91 204.76,107.90 204.39,106.43 C203.67,103.56 191.62,91.00 189.59,91.00 C188.91,91.00 187.33,89.92 186.08,88.59 C182.53,84.81 167.90,80.62 161.00,81.41 C150.99,82.56 140.60,87.18 137.68,91.78 C137.23,92.49 135.54,94.42 133.93,96.07 C132.32,97.72 131.00,99.77 131.00,100.63 C131.00,101.48 130.10,103.33 129.00,104.73 C127.90,106.13 127.00,107.90 127.00,108.68 C127.00,109.45 126.11,111.30 125.01,112.79 C119.05,120.93 114.21,168.09 117.71,184.00 C118.37,187.02 119.40,192.43 119.99,196.00 C122.11,208.91 122.91,212.07 124.74,214.76 C125.76,216.27 127.16,218.62 127.85,220.00 C132.72,229.72 137.67,235.62 146.38,242.08 C150.41,245.06 153.72,246.66 156.88,247.14 Z" fill="rgb(104,182,229)"/>
<path d="M 184.29 302.00 C176.42,305.85 169.42,308.97 168.74,308.93 C166.05,308.76 138.32,294.06 127.80,287.21 C98.39,268.07 72.17,237.55 60.98,209.43 C57.33,200.26 52.49,183.37 50.96,174.50 C49.11,163.72 48.42,73.02 50.17,70.87 C50.90,69.98 58.70,66.76 67.50,63.71 C76.30,60.67 90.47,55.64 99.00,52.54 C107.53,49.44 126.65,42.60 141.50,37.34 L 168.50 27.78 L 179.00 31.47 C184.77,33.50 195.80,37.32 203.50,39.97 C211.20,42.61 221.77,46.35 227.00,48.28 C232.23,50.21 244.38,54.58 254.00,58.00 C263.62,61.42 274.99,65.55 279.25,67.18 L 287.00 70.15 L 287.00 119.97 C287.00,166.65 286.87,170.48 284.88,180.64 C274.73,232.60 239.64,274.94 184.29,302.00 ZM 178.09 301.84 C182.71,299.55 187.18,297.11 188.00,296.41 C188.82,295.71 191.75,294.38 194.50,293.45 C197.25,292.52 201.03,290.42 202.90,288.78 C204.77,287.14 208.20,284.99 210.53,283.99 C212.86,282.99 215.47,281.17 216.32,279.95 C217.18,278.73 219.63,276.55 221.77,275.11 C226.41,271.99 251.00,247.63 251.00,246.15 C251.00,245.58 251.82,244.53 252.83,243.81 C253.84,243.09 255.49,241.15 256.50,239.50 C257.52,237.85 259.87,234.14 261.72,231.25 C263.58,228.37 265.61,224.54 266.23,222.75 C266.85,220.96 268.86,216.95 270.68,213.83 C272.51,210.71 274.00,207.34 274.01,206.33 C274.02,205.32 275.09,202.21 276.39,199.41 C277.69,196.61 278.79,192.48 278.82,190.23 C278.85,187.99 279.52,184.88 280.31,183.32 C283.84,176.42 284.21,170.37 283.92,125.00 C283.77,100.53 283.61,78.25 283.57,75.50 L 283.50 70.50 L 276.50 69.80 C271.16,69.26 267.64,68.13 261.70,65.05 C257.40,62.82 253.08,61.00 252.08,61.00 C251.08,61.00 249.16,60.13 247.81,59.06 C246.45,58.00 244.03,56.81 242.42,56.43 C236.16,54.94 225.24,51.03 220.00,48.40 C216.98,46.88 213.42,45.47 212.09,45.26 C210.76,45.06 208.75,44.24 207.62,43.44 C206.48,42.65 204.34,42.00 202.86,42.00 C201.38,42.00 198.06,41.10 195.49,40.00 C192.93,38.90 188.95,37.70 186.66,37.35 C184.37,36.99 180.07,35.42 177.11,33.85 C174.14,32.28 170.32,31.00 168.61,30.99 C166.90,30.98 161.00,32.72 155.50,34.86 C143.86,39.37 137.61,41.51 130.06,43.58 C127.06,44.40 123.19,45.96 121.44,47.04 C119.69,48.12 117.26,49.00 116.04,49.00 C114.82,49.00 112.73,49.86 111.40,50.90 C110.07,51.95 105.50,53.57 101.24,54.51 C94.04,56.10 87.55,58.56 79.00,62.95 C74.51,65.26 63.72,68.68 58.24,69.52 C55.33,69.97 53.61,70.87 52.82,72.34 C51.98,73.89 51.66,88.38 51.67,124.00 C51.68,171.73 51.75,173.67 53.73,178.13 C54.86,180.67 56.11,185.17 56.52,188.13 C56.92,191.08 58.32,195.83 59.63,198.69 C60.93,201.54 62.00,204.61 62.00,205.51 C62.00,208.19 68.94,221.90 74.66,230.50 C83.75,244.18 85.09,245.78 101.00,261.85 C113.82,274.79 117.67,278.07 123.25,280.81 C126.96,282.63 130.00,284.56 130.00,285.09 C130.00,285.63 130.79,286.36 131.75,286.73 C132.71,287.09 135.98,289.33 139.00,291.69 C142.51,294.44 145.52,296.00 147.32,296.00 C150.57,296.00 153.28,297.28 157.50,300.80 C160.80,303.55 165.62,305.90 168.09,305.96 C168.96,305.98 173.46,304.13 178.09,301.84 ZM 156.88 247.14 C153.72,246.66 150.41,245.06 146.38,242.08 C137.67,235.62 132.72,229.72 127.85,220.00 C127.16,218.62 125.76,216.27 124.74,214.76 C122.91,212.07 122.11,208.91 119.99,196.00 C119.40,192.43 118.37,187.02 117.71,184.00 C114.21,168.09 119.05,120.93 125.01,112.79 C126.11,111.30 127.00,109.45 127.00,108.68 C127.00,107.90 127.90,106.13 129.00,104.73 C130.10,103.33 131.00,101.48 131.00,100.63 C131.00,99.77 132.32,97.72 133.93,96.07 C135.54,94.42 137.23,92.49 137.68,91.78 C140.60,87.18 150.99,82.56 161.00,81.41 C167.90,80.62 182.53,84.81 186.08,88.59 C187.33,89.92 188.91,91.00 189.59,91.00 C191.62,91.00 203.67,103.56 204.39,106.43 C204.76,107.90 206.85,112.91 209.03,117.57 C215.32,130.99 214.07,136.26 204.33,137.51 C197.68,138.35 195.52,136.46 194.49,128.86 C192.76,116.14 183.13,104.13 171.09,99.67 C167.13,98.20 163.00,97.00 161.93,97.00 C159.13,97.00 149.00,102.93 149.00,104.56 C149.00,105.31 147.72,107.41 146.16,109.22 C142.62,113.30 138.67,121.92 137.05,129.07 C136.37,132.05 135.41,136.07 134.91,138.00 C134.42,139.93 133.35,146.12 132.56,151.76 C130.39,167.09 131.67,176.34 139.96,204.94 C141.35,209.75 143.65,214.51 146.48,218.44 C153.02,227.51 154.00,228.36 160.27,230.48 L 166.05 232.43 L 170.49 230.00 C174.76,227.67 179.92,221.23 181.40,216.38 C181.76,215.22 182.94,213.46 184.03,212.48 C185.17,211.44 186.01,209.39 186.02,207.60 C186.03,205.89 186.85,199.87 187.85,194.22 C190.25,180.67 190.16,180.54 178.16,180.52 L 169.14 180.50 L 164.61 185.22 C158.99,191.09 156.49,191.80 151.12,189.06 C148.92,187.94 147.78,187.42 147.38,186.56 C146.97,185.66 147.35,184.39 148.18,181.67 C148.25,181.46 148.32,181.23 148.39,181.00 C151.11,172.07 152.86,170.10 161.00,166.87 C171.41,162.73 181.50,162.02 190.67,164.77 C199.59,167.45 206.46,169.00 209.37,169.00 C210.69,169.00 213.72,167.24 216.26,165.00 C221.35,160.52 223.99,160.09 228.69,162.95 C234.05,166.22 234.37,167.98 230.71,174.08 C228.87,177.15 226.22,180.05 224.50,180.88 C222.85,181.68 220.31,182.93 218.85,183.67 C217.39,184.40 214.21,185.00 211.80,185.00 C206.25,185.00 205.00,186.27 204.98,191.95 C204.97,197.54 201.58,213.96 199.67,217.73 C198.90,219.25 197.98,222.07 197.63,224.00 C197.24,226.19 195.39,229.19 192.71,232.00 C190.36,234.48 187.69,237.67 186.79,239.10 C183.08,244.99 168.50,248.91 156.88,247.14 ZM 152.40 242.04 C164.02,247.85 176.91,245.19 186.28,235.05 C195.25,225.35 200.01,212.92 202.23,193.38 L 203.38 183.25 L 209.65 182.67 C213.10,182.35 217.67,181.19 219.80,180.10 C224.43,177.74 230.00,171.69 230.00,169.04 C230.00,167.26 225.71,163.00 223.91,163.00 C223.46,163.00 221.10,165.02 218.66,167.50 C214.88,171.33 213.63,172.00 210.27,172.00 C208.09,172.00 203.66,171.09 200.41,169.97 C192.99,167.42 179.36,166.01 171.48,166.98 C161.01,168.28 153.63,173.53 150.98,181.57 C149.64,185.62 150.02,186.23 155.00,187.91 C158.07,188.94 158.62,188.87 159.50,187.30 C161.73,183.29 168.11,178.07 171.56,177.42 C175.63,176.66 190.67,177.33 191.65,178.32 C192.83,179.50 192.03,194.97 190.41,202.31 C189.53,206.26 187.08,213.14 184.96,217.59 C173.49,241.62 154.22,240.07 140.61,214.04 C132.75,199.01 129.49,181.54 130.29,158.71 C131.07,136.40 135.43,120.07 144.05,107.16 C149.71,98.69 154.55,95.65 163.14,95.16 C169.06,94.83 170.79,95.15 175.58,97.49 C186.96,103.06 194.53,113.54 197.29,127.50 L 198.67 134.50 L 208.50 134.50 L 208.24 128.75 C207.49,112.18 195.60,95.47 179.00,87.66 C173.39,85.02 171.33,84.59 164.00,84.55 C156.66,84.51 154.72,84.88 149.82,87.29 C124.90,99.53 112.45,151.20 123.10,198.10 C127.87,219.10 138.56,235.12 152.40,242.04 Z" fill="rgb(121,181,217)"/>
<path d="M 255.56 58.55 C269.76,63.58 282.66,68.04 284.22,68.40 C285.72,68.74 287.42,69.91 288.00,71.00 C289.38,73.57 288.70,157.70 287.22,167.50 C286.22,174.19 285.09,180.19 283.79,185.77 C284.18,184.07 284.54,182.36 284.88,180.64 C286.87,170.48 287.00,166.65 287.00,119.97 L 287.00 70.15 L 279.25 67.18 C275.22,65.64 264.82,61.85 255.56,58.55 ZM 261.11 237.89 C243.48,264.02 217.58,285.72 184.33,301.98 C217.57,285.72 243.50,263.95 261.11,237.89 ZM 227.00 48.28 C221.77,46.35 211.20,42.61 203.50,39.97 C211.20,42.61 221.77,46.35 227.00,48.27 C228.06,48.66 229.17,49.07 230.33,49.50 C229.04,49.03 227.91,48.61 227.00,48.28 Z" fill="rgb(189,223,238)"/>
<path d="M 0.00 162.00 L 0.00 0.00 L 166.00 0.00 L 332.00 0.00 L 332.00 162.00 L 332.00 324.00 L 166.00 324.00 L 0.00 324.00 L 0.00 162.00 ZM 184.29 302.00 C231.96,278.69 264.55,244.22 279.29,201.50 C282.72,191.56 285.21,180.89 287.22,167.50 C288.70,157.70 289.38,73.57 288.00,71.00 C287.42,69.91 285.72,68.74 284.22,68.40 C281.56,67.79 245.83,55.22 227.00,48.27 C221.77,46.35 211.20,42.61 203.50,39.97 C195.80,37.32 184.77,33.50 179.00,31.47 L 168.50 27.78 L 141.50 37.34 C126.65,42.60 107.53,49.44 99.00,52.54 C90.47,55.64 76.30,60.67 67.50,63.71 C58.70,66.76 50.90,69.98 50.17,70.87 C48.42,73.02 49.11,163.72 50.96,174.50 C52.49,183.37 57.33,200.26 60.98,209.43 C72.17,237.55 98.39,268.07 127.80,287.21 C138.32,294.06 166.05,308.76 168.74,308.93 C169.42,308.97 176.42,305.85 184.29,302.00 ZM 152.40 242.04 C138.56,235.12 127.87,219.10 123.10,198.10 C112.45,151.20 124.90,99.53 149.82,87.29 C154.72,84.88 156.66,84.51 164.00,84.55 C171.33,84.59 173.39,85.02 179.00,87.66 C195.60,95.47 207.49,112.18 208.24,128.75 L 208.50 134.50 L 203.58 134.50 L 198.67 134.50 L 197.29 127.50 C194.53,113.54 186.96,103.06 175.58,97.49 C170.79,95.15 169.06,94.83 163.14,95.16 C154.55,95.65 149.71,98.69 144.05,107.16 C135.43,120.07 131.07,136.40 130.29,158.71 C129.49,181.54 132.75,199.01 140.61,214.04 C154.22,240.07 173.49,241.62 184.96,217.59 C187.08,213.14 189.53,206.26 190.41,202.31 C192.03,194.97 192.83,179.50 191.65,178.32 C190.67,177.33 175.63,176.66 171.56,177.42 C168.11,178.07 161.73,183.29 159.50,187.30 C158.62,188.87 158.07,188.94 155.00,187.91 C150.02,186.23 149.64,185.62 150.98,181.57 C153.63,173.53 161.01,168.28 171.48,166.98 C179.36,166.01 192.99,167.42 200.41,169.97 C203.66,171.09 208.09,172.00 210.27,172.00 C213.63,172.00 214.88,171.33 218.66,167.50 C221.10,165.02 223.46,163.00 223.91,163.00 C225.71,163.00 230.00,167.26 230.00,169.04 C230.00,171.69 224.43,177.74 219.80,180.10 C217.67,181.19 213.10,182.35 209.65,182.67 L 203.38 183.25 L 202.23 193.38 C200.01,212.92 195.25,225.35 186.28,235.05 C176.91,245.19 164.02,247.85 152.40,242.04 Z" fill="rgb(253,254,254)"/>
</g>
</svg>