<svg xmlns="http://www.w3.org/2000/svg" width="332" height="324" viewBox="0 0 332 324">
<g>

<path d="M 185.63 300.50 C177.45,304.62 169.78,308.00 168.58,308.00 C166.08,308.00 150.57,300.74 149.56,299.09 C149.19,298.49 148.16,298.00 147.28,298.00 C145.98,298.00 128.21,287.72 124.50,284.82 C123.95,284.39 120.35,281.69 116.50,278.82 C105.91,270.93 92.65,258.33 85.00,248.89 C81.13,244.12 74.00,234.14 74.00,233.51 C74.00,233.28 72.63,231.07 70.95,228.59 C67.53,223.51 60.82,209.32 60.03,205.50 C59.92,204.95 59.36,203.94 58.79,203.25 C58.22,202.56 58.05,202.00 58.41,202.00 C58.77,202.00 58.56,201.04 57.93,199.86 C56.61,197.41 52.52,182.45 51.54,176.50 C49.56,164.54 48.80,71.66 50.67,70.04 C51.13,69.64 56.67,67.64 63.00,65.58 C69.32,63.53 75.40,61.47 76.50,61.02 C80.44,59.40 89.66,55.99 99.00,52.69 C104.22,50.85 114.80,47.06 122.50,44.27 C130.20,41.48 140.55,37.83 145.50,36.17 C150.45,34.51 157.64,32.00 161.48,30.60 L 168.45 28.04 L 176.73 31.02 C192.46,36.69 201.53,39.87 209.00,42.35 C213.12,43.72 217.85,45.39 219.50,46.07 C221.15,46.75 222.95,47.45 223.50,47.63 C225.94,48.41 249.89,56.91 253.50,58.26 C255.70,59.09 264.14,62.14 272.25,65.03 L 287.00 70.28 L 286.97 116.39 C286.94,157.40 286.48,169.14 284.48,179.35 C278.18,211.61 263.92,238.09 239.97,261.99 C222.77,279.15 209.98,288.21 185.63,300.50 ZM 152.50 242.45 C159.13,245.97 169.26,246.03 176.68,242.57 C185.62,238.40 193.56,228.18 197.94,215.17 C200.16,208.59 202.99,192.67 203.00,186.75 L 203.00 183.00 L 207.32 183.00 C217.06,183.00 225.69,178.36 229.44,171.11 C230.93,168.24 230.88,168.08 227.91,165.58 C226.22,164.16 224.39,163.00 223.83,163.00 C223.28,163.00 220.81,165.07 218.36,167.59 C214.09,171.99 213.69,172.17 209.20,171.74 C206.61,171.49 201.35,170.29 197.50,169.06 C188.89,166.32 171.79,165.71 165.50,167.91 C157.08,170.87 151.42,176.64 150.32,183.42 C149.83,186.45 150.02,186.69 153.92,187.86 C158.53,189.24 159.73,188.84 161.00,185.50 C161.48,184.23 163.52,181.94 165.54,180.40 C168.76,177.95 170.26,177.56 177.85,177.21 C182.63,176.99 187.73,177.29 189.25,177.88 C191.91,178.91 192.00,179.20 192.00,186.34 C192.00,196.01 190.71,202.71 186.93,212.59 C183.23,222.27 177.92,229.60 172.62,232.33 C158.90,239.40 143.77,226.83 135.53,201.52 C123.02,163.07 132.64,109.22 154.11,97.54 C158.67,95.05 159.96,94.80 165.87,95.26 C181.33,96.45 194.13,109.81 197.12,127.88 L 198.29 135.00 L 203.18 135.00 C206.75,135.00 208.23,134.57 208.68,133.38 C209.85,130.34 206.86,118.52 202.83,110.27 C197.89,100.15 191.17,93.63 180.17,88.25 C173.12,84.80 171.81,84.50 164.00,84.52 C152.91,84.55 146.99,87.08 139.74,94.92 C127.45,108.19 120.74,128.76 119.32,157.50 C118.28,178.48 121.97,200.63 128.98,215.50 C135.43,229.18 142.25,237.00 152.50,242.45 Z" fill="rgb(106,182,228)" data-index="1" style="opacity: 1;"></path>
<path d="M 153.25 302.99 C128.95,291.05 111.88,278.97 95.03,261.79 C81.09,247.58 72.77,236.03 64.58,219.50 C57.75,205.72 54.42,196.20 50.88,180.29 C48.83,171.12 48.67,167.33 48.27,120.44 C47.92,79.61 48.09,70.18 49.17,69.30 C49.90,68.70 52.75,67.46 55.50,66.54 C58.25,65.61 79.85,57.97 103.50,49.55 C127.15,41.14 151.45,32.55 157.50,30.47 L 168.50 26.68 L 193.00 35.24 C231.68,48.75 287.10,68.77 287.83,69.50 C289.04,70.71 289.19,152.85 288.01,164.50 C285.83,185.91 281.90,200.19 273.11,218.50 C260.08,245.68 238.37,269.94 210.99,287.97 C202.26,293.72 170.84,310.01 168.51,310.00 C167.95,309.99 161.09,306.84 153.25,302.99 ZM 185.63 300.50 C209.98,288.21 222.77,279.15 239.97,261.99 C263.92,238.09 278.18,211.61 284.48,179.35 C286.48,169.14 286.94,157.40 286.97,116.39 L 287.00 70.28 L 272.25 65.03 C264.14,62.14 255.70,59.09 253.50,58.26 C249.89,56.91 225.94,48.41 223.50,47.63 C222.95,47.45 221.15,46.75 219.50,46.07 C217.85,45.39 213.12,43.72 209.00,42.35 C201.53,39.87 192.46,36.69 176.73,31.02 L 168.45 28.04 L 161.48 30.60 C157.64,32.00 150.45,34.51 145.50,36.17 C140.55,37.83 130.20,41.48 122.50,44.27 C114.80,47.06 104.22,50.85 99.00,52.69 C89.66,55.99 80.44,59.40 76.50,61.02 C75.40,61.47 69.32,63.53 63.00,65.58 C56.67,67.64 51.13,69.64 50.67,70.04 C48.80,71.66 49.56,164.54 51.54,176.50 C52.52,182.45 56.61,197.41 57.93,199.86 C58.56,201.04 58.77,202.00 58.41,202.00 C58.05,202.00 58.22,202.56 58.79,203.25 C59.36,203.94 59.92,204.95 60.03,205.50 C60.82,209.32 67.53,223.51 70.95,228.59 C72.63,231.07 74.00,233.28 74.00,233.51 C74.00,234.14 81.13,244.12 85.00,248.89 C92.65,258.33 105.91,270.93 116.50,278.82 C120.35,281.69 123.95,284.39 124.50,284.82 C128.21,287.72 145.98,298.00 147.28,298.00 C148.16,298.00 149.19,298.49 149.56,299.09 C150.57,300.74 166.08,308.00 168.58,308.00 C169.78,308.00 177.45,304.62 185.63,300.50 Z" fill="rgb(159,226,214)" data-index="2"></path>
<path d="M 152.50 242.45 C142.25,237.00 135.43,229.18 128.98,215.50 C121.97,200.63 118.28,178.48 119.32,157.50 C120.74,128.76 127.45,108.19 139.74,94.92 C146.99,87.08 152.91,84.55 164.00,84.52 C171.81,84.50 173.12,84.80 180.17,88.25 C191.17,93.63 197.89,100.15 202.83,110.27 C206.86,118.52 209.85,130.34 208.68,133.38 C208.23,134.57 206.75,135.00 203.18,135.00 L 198.29 135.00 L 197.12 127.88 C194.13,109.81 181.33,96.45 165.87,95.26 C159.96,94.80 158.67,95.05 154.11,97.54 C132.64,109.22 123.02,163.07 135.53,201.52 C143.77,226.83 158.90,239.40 172.62,232.33 C177.92,229.60 183.23,222.27 186.93,212.59 C190.71,202.71 192.00,196.01 192.00,186.34 C192.00,179.20 191.91,178.91 189.25,177.88 C187.73,177.29 182.63,176.99 177.85,177.21 C170.26,177.56 168.76,177.95 165.54,180.40 C163.52,181.94 161.48,184.23 161.00,185.50 C159.73,188.84 158.53,189.24 153.92,187.86 C150.02,186.69 149.83,186.45 150.32,183.42 C151.42,176.64 157.08,170.87 165.50,167.91 C171.79,165.71 188.89,166.32 197.50,169.06 C201.35,170.29 206.61,171.49 209.20,171.74 C213.69,172.17 214.09,171.99 218.36,167.59 C220.81,165.07 223.28,163.00 223.83,163.00 C224.39,163.00 226.22,164.16 227.91,165.58 C230.88,168.08 230.93,168.24 229.44,171.11 C225.69,178.36 217.06,183.00 207.32,183.00 L 203.00 183.00 L 203.00 186.75 C202.99,192.67 200.16,208.59 197.94,215.17 C193.56,228.18 185.62,238.40 176.68,242.57 C169.26,246.03 159.13,245.97 152.50,242.45 Z" fill="rgb(244,251,252)" data-index="3"></path>
</g>
</svg>